<mxfile host="app.diagrams.net" agent="Mozilla/5.0 (X11; Ubuntu; Linux x86_64; rv:135.0) Gecko/20100101 Firefox/135.0" version="26.0.14">
  <diagram name="Page-1" id="Eo-1betp11ZzcxROW9Lx">
    <mxGraphModel dx="1364" dy="758" grid="1" gridSize="10" guides="1" tooltips="1" connect="1" arrows="1" fold="1" page="1" pageScale="1" pageWidth="850" pageHeight="1100" math="0" shadow="0">
      <root>
        <mxCell id="0" />
        <mxCell id="1" parent="0" />
        <mxCell id="w_HbZln5crKcpOivYo1H-5" value="" style="verticalLabelPosition=bottom;html=1;verticalAlign=top;align=center;strokeColor=none;fillColor=#00BEF2;shape=mxgraph.azure.mobile_services;pointerEvents=1;" vertex="1" parent="1">
          <mxGeometry x="200" y="320" width="80" height="160" as="geometry" />
        </mxCell>
        <mxCell id="w_HbZln5crKcpOivYo1H-6" value="" style="sketch=0;outlineConnect=0;fontColor=#232F3E;gradientColor=none;fillColor=#7AA116;strokeColor=none;dashed=0;verticalLabelPosition=bottom;verticalAlign=top;align=center;html=1;fontSize=12;fontStyle=0;aspect=fixed;pointerEvents=1;shape=mxgraph.aws4.iot_thing_temperature_sensor;" vertex="1" parent="1">
          <mxGeometry x="440" y="340" width="120" height="120" as="geometry" />
        </mxCell>
        <mxCell id="w_HbZln5crKcpOivYo1H-8" value="Advertising Packet" style="text;html=1;align=center;verticalAlign=middle;whiteSpace=wrap;rounded=0;" vertex="1" parent="1">
          <mxGeometry x="305" y="330" width="120" height="30" as="geometry" />
        </mxCell>
        <mxCell id="w_HbZln5crKcpOivYo1H-11" value="Scan Request" style="text;html=1;align=center;verticalAlign=middle;whiteSpace=wrap;rounded=0;" vertex="1" parent="1">
          <mxGeometry x="310" y="370" width="120" height="30" as="geometry" />
        </mxCell>
        <mxCell id="w_HbZln5crKcpOivYo1H-13" value="Scan Response Packet" style="text;html=1;align=center;verticalAlign=middle;whiteSpace=wrap;rounded=0;" vertex="1" parent="1">
          <mxGeometry x="300" y="410" width="120" height="30" as="geometry" />
        </mxCell>
        <mxCell id="w_HbZln5crKcpOivYo1H-14" value="Active Scanning" style="text;html=1;align=center;verticalAlign=middle;whiteSpace=wrap;rounded=0;" vertex="1" parent="1">
          <mxGeometry x="320" y="500" width="100" height="30" as="geometry" />
        </mxCell>
        <mxCell id="w_HbZln5crKcpOivYo1H-15" value="" style="endArrow=classic;html=1;rounded=0;entryX=1.013;entryY=0.238;entryDx=0;entryDy=0;entryPerimeter=0;exitX=0;exitY=0.151;exitDx=0;exitDy=0;exitPerimeter=0;" edge="1" parent="1" source="w_HbZln5crKcpOivYo1H-6" target="w_HbZln5crKcpOivYo1H-5">
          <mxGeometry width="50" height="50" relative="1" as="geometry">
            <mxPoint x="400" y="420" as="sourcePoint" />
            <mxPoint x="450" y="370" as="targetPoint" />
          </mxGeometry>
        </mxCell>
        <mxCell id="w_HbZln5crKcpOivYo1H-16" value="" style="endArrow=classic;html=1;rounded=0;exitX=1;exitY=0.5;exitDx=0;exitDy=0;exitPerimeter=0;" edge="1" parent="1" source="w_HbZln5crKcpOivYo1H-5" target="w_HbZln5crKcpOivYo1H-6">
          <mxGeometry width="50" height="50" relative="1" as="geometry">
            <mxPoint x="400" y="420" as="sourcePoint" />
            <mxPoint x="450" y="370" as="targetPoint" />
          </mxGeometry>
        </mxCell>
        <mxCell id="w_HbZln5crKcpOivYo1H-17" value="" style="endArrow=classic;html=1;rounded=0;entryX=1.013;entryY=0.75;entryDx=0;entryDy=0;entryPerimeter=0;exitX=0;exitY=0.833;exitDx=0;exitDy=0;exitPerimeter=0;" edge="1" parent="1" source="w_HbZln5crKcpOivYo1H-6" target="w_HbZln5crKcpOivYo1H-5">
          <mxGeometry width="50" height="50" relative="1" as="geometry">
            <mxPoint x="400" y="420" as="sourcePoint" />
            <mxPoint x="450" y="370" as="targetPoint" />
          </mxGeometry>
        </mxCell>
        <mxCell id="w_HbZln5crKcpOivYo1H-18" value="Scanner" style="text;html=1;align=center;verticalAlign=middle;whiteSpace=wrap;rounded=0;" vertex="1" parent="1">
          <mxGeometry x="210" y="290" width="60" height="30" as="geometry" />
        </mxCell>
        <mxCell id="w_HbZln5crKcpOivYo1H-19" value="Advertiser" style="text;html=1;align=center;verticalAlign=middle;whiteSpace=wrap;rounded=0;" vertex="1" parent="1">
          <mxGeometry x="470" y="290" width="60" height="30" as="geometry" />
        </mxCell>
        <mxCell id="w_HbZln5crKcpOivYo1H-20" value="" style="endArrow=classic;html=1;rounded=0;exitX=1;exitY=0.919;exitDx=0;exitDy=0;exitPerimeter=0;" edge="1" parent="1" source="w_HbZln5crKcpOivYo1H-5">
          <mxGeometry width="50" height="50" relative="1" as="geometry">
            <mxPoint x="400" y="420" as="sourcePoint" />
            <mxPoint x="330" y="467" as="targetPoint" />
          </mxGeometry>
        </mxCell>
        <mxCell id="w_HbZln5crKcpOivYo1H-21" value="X" style="text;html=1;align=center;verticalAlign=middle;whiteSpace=wrap;rounded=0;" vertex="1" parent="1">
          <mxGeometry x="330" y="450" width="20" height="30" as="geometry" />
        </mxCell>
        <mxCell id="w_HbZln5crKcpOivYo1H-22" value="" style="verticalLabelPosition=bottom;html=1;verticalAlign=top;align=center;strokeColor=none;fillColor=#00BEF2;shape=mxgraph.azure.mobile_services;pointerEvents=1;" vertex="1" parent="1">
          <mxGeometry x="720" y="335" width="80" height="160" as="geometry" />
        </mxCell>
        <mxCell id="w_HbZln5crKcpOivYo1H-23" value="" style="sketch=0;outlineConnect=0;fontColor=#232F3E;gradientColor=none;fillColor=#7AA116;strokeColor=none;dashed=0;verticalLabelPosition=bottom;verticalAlign=top;align=center;html=1;fontSize=12;fontStyle=0;aspect=fixed;pointerEvents=1;shape=mxgraph.aws4.iot_thing_temperature_sensor;" vertex="1" parent="1">
          <mxGeometry x="960" y="355" width="120" height="120" as="geometry" />
        </mxCell>
        <mxCell id="w_HbZln5crKcpOivYo1H-24" value="Advertising Packet" style="text;html=1;align=center;verticalAlign=middle;whiteSpace=wrap;rounded=0;" vertex="1" parent="1">
          <mxGeometry x="825" y="345" width="120" height="30" as="geometry" />
        </mxCell>
        <mxCell id="w_HbZln5crKcpOivYo1H-27" value="Passive Scanning" style="text;html=1;align=center;verticalAlign=middle;whiteSpace=wrap;rounded=0;" vertex="1" parent="1">
          <mxGeometry x="840" y="515" width="100" height="30" as="geometry" />
        </mxCell>
        <mxCell id="w_HbZln5crKcpOivYo1H-28" value="" style="endArrow=classic;html=1;rounded=0;entryX=1.013;entryY=0.238;entryDx=0;entryDy=0;entryPerimeter=0;exitX=0;exitY=0.151;exitDx=0;exitDy=0;exitPerimeter=0;" edge="1" parent="1" source="w_HbZln5crKcpOivYo1H-23" target="w_HbZln5crKcpOivYo1H-22">
          <mxGeometry width="50" height="50" relative="1" as="geometry">
            <mxPoint x="920" y="435" as="sourcePoint" />
            <mxPoint x="970" y="385" as="targetPoint" />
          </mxGeometry>
        </mxCell>
        <mxCell id="w_HbZln5crKcpOivYo1H-31" value="Scanner" style="text;html=1;align=center;verticalAlign=middle;whiteSpace=wrap;rounded=0;" vertex="1" parent="1">
          <mxGeometry x="730" y="305" width="60" height="30" as="geometry" />
        </mxCell>
        <mxCell id="w_HbZln5crKcpOivYo1H-32" value="Advertiser" style="text;html=1;align=center;verticalAlign=middle;whiteSpace=wrap;rounded=0;" vertex="1" parent="1">
          <mxGeometry x="990" y="305" width="60" height="30" as="geometry" />
        </mxCell>
        <mxCell id="w_HbZln5crKcpOivYo1H-35" value="" style="endArrow=classic;html=1;rounded=0;exitX=1;exitY=0.919;exitDx=0;exitDy=0;exitPerimeter=0;" edge="1" parent="1">
          <mxGeometry width="50" height="50" relative="1" as="geometry">
            <mxPoint x="800" y="402" as="sourcePoint" />
            <mxPoint x="850" y="402" as="targetPoint" />
          </mxGeometry>
        </mxCell>
        <mxCell id="w_HbZln5crKcpOivYo1H-36" value="X" style="text;html=1;align=center;verticalAlign=middle;whiteSpace=wrap;rounded=0;" vertex="1" parent="1">
          <mxGeometry x="850" y="385" width="20" height="30" as="geometry" />
        </mxCell>
      </root>
    </mxGraphModel>
  </diagram>
</mxfile>
